<svg width="1200" height="1200" viewBox="0 0 1200 1200" fill="none" xmlns="http://www.w3.org/2000/svg" preserveAspectRatio="xMidYMid meet" role="img" aria-labelledby="title desc">
  <title id="title">Logo Accesorios Margarita</title>
  <desc id="desc">Logo circular rosa de Margarita Accesorios con monograma M, arco, mono y corazon.</desc>
  <rect width="1200" height="1200" fill="#FFF1F5"/>
  <circle cx="600" cy="600" r="507" fill="#FFF1F5"/>
  <circle cx="600" cy="600" r="501" stroke="#F7C8D3" stroke-width="4"/>
  <path d="M218 512C286 314 459 214 600 214C741 214 914 314 982 512" stroke="#DC6B8D" stroke-width="9" stroke-linecap="round"/>
  <path d="M240 512C308 333 468 244 600 244C732 244 892 333 960 512" stroke="#E99AAF" stroke-width="4" stroke-linecap="round"/>
  <path d="M252 829C330 935 463 992 600 992C737 992 870 935 948 829" stroke="#DC6B8D" stroke-width="9" stroke-linecap="round"/>
  <path d="M280 831C358 914 476 960 600 960C724 960 842 914 920 831" stroke="#E99AAF" stroke-width="4" stroke-linecap="round"/>
  <circle cx="206" cy="545" r="13" fill="#DC6B8D"/>
  <circle cx="994" cy="545" r="13" fill="#DC6B8D"/>
  <path d="M543 139C568 101 599 122 600 174C565 176 531 169 511 149C491 129 512 101 543 139Z" stroke="#DC6B8D" stroke-width="12" stroke-linecap="round" stroke-linejoin="round"/>
  <path d="M657 139C632 101 601 122 600 174C635 176 669 169 689 149C709 129 688 101 657 139Z" stroke="#DC6B8D" stroke-width="12" stroke-linecap="round" stroke-linejoin="round"/>
  <path d="M600 174C594 202 573 220 546 233" stroke="#DC6B8D" stroke-width="9" stroke-linecap="round"/>
  <path d="M600 174C606 202 627 220 654 233" stroke="#DC6B8D" stroke-width="9" stroke-linecap="round"/>
  <text x="600" y="587" text-anchor="middle" fill="#DC6B8D" font-family="'Brush Script MT', 'Segoe Script', cursive" font-size="374" font-style="italic">M</text>
  <path d="M742 563C714 529 671 500 638 516C600 534 609 589 641 617C682 653 727 603 742 574C758 602 804 650 844 617C876 589 884 535 847 517C815 501 770 529 742 563Z" stroke="#DC6B8D" stroke-width="13" stroke-linecap="round" stroke-linejoin="round"/>
  <text x="600" y="760" text-anchor="middle" fill="#DC6B8D" font-family="Georgia, 'Times New Roman', serif" font-size="98" font-weight="700" letter-spacing="18">MARGARITA</text>
  <path d="M432 829H558" stroke="#E99AAF" stroke-width="5" stroke-linecap="round"/>
  <path d="M642 829H768" stroke="#E99AAF" stroke-width="5" stroke-linecap="round"/>
  <path d="M600 835C588 823 571 811 557 819C542 827 546 849 561 858C579 869 593 846 600 835Z" fill="#DC6B8D"/>
  <path d="M600 835C612 823 629 811 643 819C658 827 654 849 639 858C621 869 607 846 600 835Z" fill="#DC6B8D"/>
  <text x="600" y="900" text-anchor="middle" fill="#DC6B8D" font-family="Arial, Helvetica, sans-serif" font-size="42" font-weight="700" letter-spacing="22">ACCESORIOS</text>
</svg>
